HIERARCHY
ROOT hip
{
	OFFSET 0.000000 0.000000 0.000000 
	CHANNELS 6 Xposition Yposition Zposition Xrotation Zrotation Yrotation
	JOINT abdomen
	{
		OFFSET 0.000000 3.402643 0.000000 
		CHANNELS 3 Xrotation Zrotation Yrotation
		JOINT chest
		{
			OFFSET 0.000000 8.438565 -0.680529 
			CHANNELS 3 Xrotation Zrotation Yrotation
			JOINT neck
			{
				OFFSET 0.000000 10.207942 -0.272212 
				CHANNELS 3 Xrotation Zrotation Yrotation
				JOINT head
				{
					OFFSET 0.000000 3.130431 0.000000 
					CHANNELS 3 Xrotation Zrotation Yrotation
					End Site
					{
						OFFSET 0.000000 3.130435 0.000000 
					}
				}
			}
			JOINT lCollar
			{
				OFFSET 3.470700 6.669187 -0.816635 
				CHANNELS 3 Yrotation Zrotation Xrotation
				JOINT lShldr
				{
					OFFSET 3.198488 0.000000 0.000000 
					CHANNELS 3 Zrotation Yrotation Xrotation
					JOINT lForeArm
					{
						OFFSET 10.139888 0.000000 0.000000 
						CHANNELS 3 Yrotation Zrotation Xrotation
						JOINT lHand
						{
							OFFSET 8.370511 0.000000 0.000000 
							CHANNELS 3 Zrotation Yrotation Xrotation
							End Site
							{
								OFFSET 4.083176 0.000000 0.000000 
							}
						}
					}
				}
			}
			JOINT rCollar
			{
				OFFSET -3.470700 6.669187 -0.816635 
				CHANNELS 3 Yrotation Zrotation Xrotation
				JOINT rShldr
				{
					OFFSET -3.198488 0.000000 0.000000 
					CHANNELS 3 Zrotation Yrotation Xrotation
					JOINT rForeArm
					{
						OFFSET -10.139888 0.000000 0.000000 
						CHANNELS 3 Yrotation Zrotation Xrotation
						JOINT rHand
						{
							OFFSET -8.370511 0.000000 0.000000 
							CHANNELS 3 Zrotation Yrotation Xrotation
							End Site
							{
								OFFSET -4.083176 0.000000 0.000000 
							}
						}
					}
				}
			}
		}
	}
	JOINT lThigh
	{
		OFFSET 5.308129 -1.633274 1.361059 
		CHANNELS 3 Xrotation Zrotation Yrotation
		JOINT lShin
		{
			OFFSET -2.041588 -20.007561 0.000000 
			CHANNELS 3 Xrotation Zrotation Yrotation
			JOINT lFoot
			{
				OFFSET 0.000000 -19.190928 -1.224953 
				CHANNELS 3 Xrotation Yrotation Zrotation
				End Site
				{
					OFFSET 0.000000 -2.449906 4.627600 
				}
			}
		}
	}
	JOINT rThigh
	{
		OFFSET -5.308129 -1.633274 1.361059 
		CHANNELS 3 Xrotation Zrotation Yrotation
		JOINT rShin
		{
			OFFSET 2.041588 -20.007561 0.000000 
			CHANNELS 3 Xrotation Zrotation Yrotation
			JOINT rFoot
			{
				OFFSET 0.000000 -19.190928 -1.224953 
				CHANNELS 3 Xrotation Yrotation Zrotation
				End Site
				{
					OFFSET 0.000000 -2.449906 4.627600 
				}
			}
		}
	}
}
MOTION
Frames: 6
Frame Time: 0.011111
77.367653 50.728077 0.657191 11.840302 0.852987 94.956642 25.077597 -14.290185 -9.597539 -16.947666 6.737996 -0.915709 -23.142057 2.860827 -0.138648 46.102489 -0.617578 1.644034 3.134826 -1.098498 2.090950 -71.948372 -48.013668 51.125149 -60.858097 9.331677 12.780918 8.524705 12.647240 -46.809948 -2.361975 3.467811 1.820220 70.910355 11.579595 16.905893 48.986233 -7.469772 7.759532 -8.534408 -12.637552 39.261578 33.457218 -8.025605 -6.546268 -0.118462 -5.960219 -0.681628 -20.826870 -3.107098 -3.855767 -28.334955 -19.029739 -2.888379 30.767328 5.263093 4.934475 -17.612377 4.711314 4.415623 
77.859581 50.749451 0.667080 11.370048 0.786576 94.947311 24.803488 -13.686475 -9.172742 -16.908701 6.562163 -0.886224 -23.232595 2.973423 -0.202511 46.191376 -0.866979 1.442026 3.134826 -1.098498 2.090950 -72.196411 -47.557434 50.981163 -60.601913 9.312634 12.663427 8.524705 12.647240 -46.966194 -2.361975 3.467811 1.820220 70.942535 11.745127 16.838413 49.028046 -7.481224 7.778034 -8.534408 -12.637552 38.900249 33.773476 -7.528508 -6.403766 -0.117426 -5.960422 -0.691365 -20.301756 -2.648566 -3.692280 -28.256817 -18.619595 -3.326119 31.087137 5.243187 4.967695 -17.165020 4.124973 4.202494 
78.391716 50.770504 0.663252 10.790585 0.842309 94.934937 24.527802 -12.934251 -8.720755 -16.830557 6.338322 -0.863680 -23.292511 3.034746 -0.210742 46.435276 -0.929185 1.445596 3.134826 -1.098498 2.090950 -72.394203 -46.936367 50.689800 -60.431950 9.302179 12.591530 8.524705 12.647240 -47.278694 -2.361975 3.467811 1.820220 70.967628 12.076806 16.616432 48.767334 -7.414360 7.672999 -8.534408 -12.637552 38.118999 34.234177 -6.933343 -6.184251 -0.117397 -5.960421 -0.691365 -19.668556 -2.144680 -3.526433 -27.576103 -18.172356 -4.179407 31.246725 5.233789 4.988881 -16.540480 4.093667 4.173476 
78.919380 50.796665 0.665486 9.965879 0.979532 94.892334 24.337385 -11.877078 -8.179546 -16.811420 6.094043 -0.848509 -23.320843 2.993660 -0.184021 46.678505 -0.814837 1.561792 3.134826 -1.098498 2.090950 -72.578888 -46.256992 50.410786 -60.240295 9.288321 12.507455 8.524705 12.647240 -47.464245 -2.361975 3.467811 1.820220 70.926064 12.536502 16.273245 48.393204 -7.321055 7.520449 -8.534408 -12.637552 37.054546 34.663395 -6.142023 -5.781669 -0.118368 -5.960033 -0.671875 -19.455696 -2.045905 -3.494522 -26.791080 -17.368898 -4.657902 31.424540 5.239291 4.996255 -15.722444 4.084787 4.146895 
79.395050 50.822830 0.677608 9.359591 1.057425 94.975189 24.316360 -11.047177 -7.830664 -16.968761 5.964788 -0.868135 -23.299423 2.889850 -0.201615 46.874775 -0.781599 1.491185 3.134826 -1.098498 2.090950 -72.895920 -45.573971 50.145386 -59.825851 9.257371 12.319412 8.524705 12.647240 -47.581432 -2.361975 3.467811 1.820220 70.854050 12.938073 15.999693 48.185356 -7.267353 7.435741 -8.534408 -12.637552 36.263531 35.030308 -5.477835 -5.591674 -0.117315 -5.960421 -0.691364 -19.354656 -2.064107 -3.490579 -26.178482 -16.775023 -5.028033 31.715485 5.204623 5.051981 -14.758121 4.213638 4.176420 
79.891449 50.835903 0.682394 8.842788 1.217498 94.839485 24.314550 -10.344878 -7.382199 -17.224148 5.842576 -0.838221 -23.074295 2.870166 -0.213428 46.953327 -0.914850 1.421961 3.134826 -1.098498 2.090950 -73.232803 -44.694855 49.705391 -59.398563 9.216434 12.132254 8.524705 12.647240 -47.893932 -2.361975 3.467811 1.820220 70.730789 13.213471 16.015520 48.061054 -7.237349 7.387556 -8.534408 -12.637552 35.882675 35.560394 -4.970414 -5.248960 -0.117284 -5.960425 -0.691363 -19.116049 -1.996009 -3.487770 -25.424515 -16.168137 -5.275775 32.014977 5.184869 5.083270 -14.497500 4.446191 4.242039 
